# xmcd
#
# Track frame offsets:
#	150
#	19844
#	34504
#	49694
#	62430
#	76981
#	94758
#	114722
#	131080
#	150826
#	167590
#	190347
#
# Disc length: 2748 seconds
#
# Revision: 0
# Processed by: cddbd v1.5.2PL0 Copyright (c) Steve Scherf et al.
# Submitted via: EasyCDDAExtractor 16.0.9.1
#
DISCID=8c0aba0c
DTITLE=Лора Караджова - Недей да спиш
DYEAR=2009
DGENRE=R&B
TTITLE0=Виждам в теб
TTITLE1=Недей да спиш
TTITLE2=Кво си мислим (с Goodslav)
TTITLE3=Моя собствена игра
TTITLE4=5 минути
TTITLE5=Спуснати завеси
TTITLE6=Сляп ден
TTITLE7=Мисля за теб
TTITLE8=Гушкай ме (remix by DJ Doncho)
TTITLE9=Душичката с памук ще ти извадя
TTITLE10=Нека бъде лято (с Goodslav aka. BallFace)
TTITLE11=Мисля за теб (remix by DJ Doncho)
EXTD=
EXTT0=
EXTT1=
EXTT2=
EXTT3=
EXTT4=
EXTT5=
EXTT6=
EXTT7=
EXTT8=
EXTT9=
EXTT10=
EXTT11=
PLAYORDER=
